<svg xmlns="http://www.w3.org/2000/svg" xmlns:xlink="http://www.w3.org/1999/xlink" width="676.225" height="332.011"><defs><clipPath id="a"><path d="M-20.813 290.101h597.12v-60.48h-597.12v60.48z"/></clipPath><clipPath id="b"><path d="M-11.013 642.098h592.057V228.651H-11.013v413.447z"/></clipPath><clipPath id="c"><path d="M386.261 410.769h203.52v-186.24h-203.52v186.24z"/></clipPath><clipPath id="d"><path d="M-190.272 915.902h457.92v-358.08h-457.92v358.08z"/></clipPath><clipPath id="e"><path d="M-20.428 798.749h359.04v-170.88h-359.04v170.88z"/></clipPath><clipPath id="f"><path d="M401.512 400.882h194.88v-152.64h-194.88v152.64z"/></clipPath><clipPath id="g"><path d="M495.696 375.793h38.782v-12.879h-38.782v12.879z"/></clipPath><clipPath id="h"><path d="M495.696 365.576l38.068-2.662.714 10.217-38.067 2.662-.715-10.217z"/></clipPath><clipPath id="i"><path d="M496.049 375.031h41.218v-12.959h-41.218v12.959z"/></clipPath><clipPath id="j"><path d="M496.049 364.904l40.509-2.832.708 10.127-40.509 2.832-.708-10.127z"/></clipPath><clipPath id="k"><path d="M496.594 375.089h39.817v-12.232h-39.817v12.232z"/></clipPath><clipPath id="l"><path d="M496.594 365.595l39.153-2.738.664 9.494-39.153 2.738-.664-9.494z"/></clipPath><clipPath id="m"><path d="M496.594 375.089h39.817v-12.232h-39.817v12.232z"/></clipPath><clipPath id="n"><path d="M496.594 365.595l39.153-2.738.664 9.494-39.153 2.738-.664-9.494z"/></clipPath><clipPath id="o"><path d="M474.148 444.491h10.061v-10.062h-10.061v10.062z"/></clipPath><clipPath id="p"><path d="M474.148 435.087l9.404-.658.657 9.404-9.404.658-.657-9.404z"/></clipPath><clipPath id="q"><path d="M475.75 443.091h8.413v-7.067h-8.413v7.067z"/></clipPath><clipPath id="r"><path d="M475.75 436.58l7.957-.556.456 6.51-7.957.557-.456-6.511z"/></clipPath><clipPath id="s"><path d="M563.368 399.607h8.44v-22.905h-8.44v22.905z"/></clipPath><clipPath id="t"><path d="M563.368 377.183l6.872-.481 1.568 22.425-6.872.48-1.568-22.424z"/></clipPath><clipPath id="u"><path d="M47.69 673.43h491.52V527.51H47.69v145.92z"/></clipPath><clipPath id="v"><path d="M62.896 630.414h461.76v-116.16H62.896v116.16z"/></clipPath><clipPath id="w"><path d="M-20.428 798.749h359.04v-170.88h-359.04v170.88z"/></clipPath><clipPath id="B"><path d="M207.998 652.57h168.959v84.428H207.998V652.57z"/></clipPath><clipPath id="D"><path d="M207.998 652.57h168.959v84.428H207.998V652.57z"/></clipPath><clipPath id="F"><path d="M207.998 652.57h168.959v84.428H207.998V652.57z"/></clipPath><clipPath id="G"><path d="M230.53 705.391h114.598v-36.013H230.53v36.013z"/></clipPath><clipPath id="H"><path d="M230.53 669.378h114.598v36.013H230.53v-36.013z"/></clipPath><clipPath id="I"><path d="M325.226 689.716h7.355v-4.987h-7.355v4.987z"/></clipPath><clipPath id="J"><path d="M325.226 684.729h7.355v4.987h-7.355v-4.987z"/></clipPath><clipPath id="K"><path d="M325.72 703.804h7.527v-4.882h-7.527v4.882z"/></clipPath><clipPath id="L"><path d="M325.72 698.922h7.528v4.882h-7.528v-4.882z"/></clipPath><clipPath id="M"><path d="M341.402 672.354h9.097v-3.618h-9.097v3.618z"/></clipPath><clipPath id="N"><path d="M341.401 668.736h9.098v3.618h-9.098v-3.618z"/></clipPath><clipPath id="O"><path d="M346.732 705.502h5.858v-20.098h-5.858v20.098z"/></clipPath><clipPath id="P"><path d="M346.732 685.404h5.857v20.098h-5.857v-20.098z"/></clipPath><clipPath id="Q"><path d="M207.998 652.57h168.959v84.428H207.998V652.57z"/></clipPath><clipPath id="R"><path d="M233.496 705.655h123.038v-36.999H233.496v36.999z"/></clipPath><clipPath id="S"><path d="M233.496 668.656h123.037v37H233.496v-37z"/></clipPath><linearGradient id="y"><stop offset="0" stop-color="#fdbe12"/><stop offset="1" stop-color="#d38628"/></linearGradient><linearGradient id="x"><stop offset="0" stop-color="#a21b1f"/><stop offset="1" stop-color="#d51c23"/></linearGradient><linearGradient x1="206.776" y1="736.945" x2="206.776" y2="656.543" id="C" xlink:href="#z" gradientUnits="userSpaceOnUse"/><linearGradient id="z"><stop offset="0" stop-color="#fdbe12"/><stop offset="1" stop-color="#d38628"/></linearGradient><linearGradient x1="288.405" y1="99.759" x2="288.405" y2="62.836" id="E" xlink:href="#A" gradientUnits="userSpaceOnUse"/><linearGradient id="A"><stop offset="0" stop-color="#a21b1f"/><stop offset="1" stop-color="#d51c23"/></linearGradient></defs><path d="M649.922 37.707S525.914 2.627 339.512 3.676C153.11 4.726 72.28 25.216 31.212 37.339c0 0-28.495 5.438-27.942 41.693l36.864 220.772s4.65 29.469 41.047 27.794a124.94 124.94 0 006.168-.868c19.636-4.88 165.076-38.52 261.347-34.697 103.767 4.118 114.481 8.243 246.947 35.35 0 0 32.529 9.189 43.485-28.87l35.544-217.899s6.128-30.583-24.75-42.907" fill="#fff"/><g transform="matrix(4.03686 0 0 -4.03686 -830.854 2975.49)"><g clip-path="url(#B)" transform="translate(-2.316 .336)" fill="#975322"><path d="M364.595 714.923l-7.573-48.494c-2.443-8.486-10.172-6.564-10.172-6.564-26.377 5.306-30.251 5.815-53.391 6.733-23.14.918-57.427-6.718-57.427-6.718-8.9-.893-10.008 6.135-10.008 6.135l-8.22 49.23c-.123 8.084 6.23 9.297 6.23 9.297 9.158 2.703 25.81 7.273 67.377 7.507 41.565.234 67.542-7.589 67.542-7.589 6.887-2.748 5.642-9.537 5.642-9.537m3.727 11.541s-30.72 8.691-76.894 8.431c-46.175-.26-66.198-5.337-76.37-8.34 0 0-7.06-1.347-6.923-10.327l9.132-54.69s1.152-7.3 10.168-6.885c.028.003.772.087 1.529.215 4.863 1.209 40.89 9.542 64.739 8.596 25.705-1.021 28.359-2.043 61.174-8.757 0 0 8.585-2.136 11.3 7.292l8.412 53.871s1.382 7.542-6.267 10.594"/></g><path d="M363.238 716.967l-7.573-48.494c-2.443-8.486-10.172-6.564-10.172-6.564-26.377 5.306-30.25 5.815-53.39 6.733-23.14.918-57.428-6.718-57.428-6.718-8.899-.893-10.008 6.135-10.008 6.135l-8.22 49.23c-.123 8.084 6.231 9.297 6.231 9.297 9.157 2.703 25.81 7.273 67.376 7.507 41.565.234 67.542-7.589 67.542-7.589 6.887-2.748 5.642-9.537 5.642-9.537m3.727 11.541s-30.719 8.691-76.894 8.431c-46.175-.26-66.198-5.337-76.37-8.34 0 0-7.059-1.347-6.923-10.327l9.132-54.69s1.152-7.3 10.168-6.885c.028.003.772.087 1.53.215 4.862 1.21 40.89 9.542 64.738 8.596 25.705-1.02 28.36-2.043 61.174-8.757 0 0 8.585-2.136 11.3 7.292l8.412 53.871s1.382 7.542-6.267 10.594" fill="url(#C)"/><g clip-path="url(#D)" transform="translate(-2.316 .336)" fill="#f7de08"><path d="M368.768 728.308s-30.719 8.69-76.894 8.43c-46.175-.26-65.847-5.582-76.019-8.585 0 0-1.207-.267-2.675-1.253.932.446 1.588.587 1.588.587 10.173 3.003 29.781 8.334 75.956 8.594 46.174.26 76.894-8.43 76.894-8.43 7.65-3.053 6.267-10.595 6.267-10.595l-8.413-53.87c-.873-3.033-2.353-4.868-3.96-5.964 2.026.954 4.032 2.874 5.11 6.62l8.413 53.871s1.382 7.542-6.267 10.595M218.25 717.09l8.22-49.23s1.11-7.028 10.008-6.136c0 0 34.287 7.637 57.427 6.72 23.14-.92 27.013-1.429 53.391-6.734 0 0 3.07-1.053 5.816.211-3.063-2.129-6.966-.868-6.966-.868-26.378 5.305-30.252 5.814-53.39 6.732-23.14.92-57.429-6.718-57.429-6.718-8.898-.892-10.007 6.136-10.007 6.136l-8.22 49.23c-.086 5.636 2.977 7.932 4.84 8.805-1.754-1.199-3.76-3.573-3.69-8.148"/></g></g><g><path d="M508.526 232.716v27.907c0 .888-.52 1.328-.908 1.328l-58.773-10.568-.634-.126c-.379-.19-.597-.69-.597-1.679l.234-2.915c0-1.11.65-1.582 1.3-1.55 9.006.42 9.616 5.612 10.16-26.603v-62.676c0-.157-.003-.299-.003-.452-.024-16.43-1.502-19.651-9.87-19.651-1.042 0-1.821 0-1.821-1.329v-3.818c0-1.107.392-1.329 1.3-1.329h56.496c1.037 0 1.3.222 1.3 1.995v23.03c0 1.776-.13 2.442-.521 2.442h-3.936c-.65 0-.908-.666-.908-2.22v-3.762c-.134-9.527-1.95-13.29-6.5-13.29h-20.592v49.484l15.433 1.021c7.929 0 9.358-2.438 9.487-15.061 0-3.104 0-3.544 1.166-3.544h2.62c.99 0 1.042.884 1.042 2.216v40.752c0 1.328-.392 1.772-.912 1.772h-3.008c-.52 0-.779-.444-.779-2.216 0-12.628-1.687-15.728-8.054-15.728l-16.995-1.037-.02 51.894 11.376 1.731.012.004 1.712.259c.109 0 .214.004.327.004l5.841.807 3.694.525s5.651 1.086 5.768-6.915c0 0 .17-5.74.202-9.596 0-1.55 0-2.878.909-2.878h3.673c.78 0 .78.888.78 1.772M379.79 214.038c0 19.461-13.282 32.965-32.049 32.965-8.663 0-14.29-1.39-23.821-5.959V214.24c0-.597.29-1.59.722-1.59h2.6c.723 0 1.3 2.98 1.732 7.347.577 7.747 1.586 11.719 3.609 13.503 4.622 4.17 10.972 6.948 16.026 6.948 10.686 0 18.477-8.732 18.477-20.649 0-9.926-5.341-16.68-20.063-25.618-8.954-5.36-22.813-13.697-22.813-33.159 0-3.003.355-5.89 1.022-8.626 3.467-14.267 15.453-24.339 30.595-24.339 6.205 0 13.91 2.067 18.82 4.453l.525 19.845v5.293c0 .79-.432 1.19-1.442 1.19h-1.88c-1.01 0-1.01-.4-1.297-3.374l-.29-2.584c-.024-.198-.045-.391-.073-.59-1.623-13.821-5.421-18.076-16.24-18.076-8.797 0-15.683 7.557-16.858 18.036a29.785 29.785 0 00-.178 3.214c0 9.729 5.196 16.478 19.636 25.416 16.89 10.524 23.24 19.461 23.24 33.159m64.52 1.723c0 19.85-13.728 33.62-33.13 33.62-8.957 0-14.775-1.418-24.624-6.08v-27.342c0-.605.298-1.619.746-1.619h2.685c.747 0 1.344 3.04 1.792 7.497.598 7.896 1.643 11.945 3.73 13.774 4.776 4.25 11.344 7.084 16.563 7.084 11.045 0 19.107-8.913 19.107-21.06 0-10.129-5.522-17.015-20.745-26.13-9.253-5.47-23.58-13.976-23.58-33.821 0-3.31.432-6.48 1.231-9.459 3.791-14.206 16.039-24.169 31.452-24.169 6.418 0 14.924 1.825 19.998 4.255v25.925c0 .811-.448 1.22-1.493 1.22h-1.938c-1.046 0-1.046-.409-1.344-3.448l-.255-2.22-.044-.412c-1.643-14.581-5.523-19.038-16.862-19.038-9.03 0-16.107 7.593-17.399 18.162a28.475 28.475 0 00-.214 3.508c0 9.922 5.373 16.813 20.297 25.924 17.46 10.734 24.028 19.854 24.028 33.83m-129.373-68.543l-2.406 5.555-3.076 7.101c-2.249 5.51-8.15 19.8-13.488 33.478l-1.497 6.737c-.138 5.918-.138 11.638-.138 17.556 0 14.493.279 18.106 1.688 20.148 1.122 1.635 3.254 1.962 7.464 1.752 1.97-.096 2.458.291 2.458 1.72v3.674c0 .613-.42 1.021-1.263 1.021l-33.865 1.752c-1.264 0-1.546-.408-1.546-1.429v-3.88c-.008-1.533 1.776-1.138 3.322-1.34 8.118-.068 8.417-.698 8.417-10.496v-30.07l-2.184-7.347c-4.384-11.122-10.536-26.688-15.445-38.56-3.742-9.055-6.77-15.954-7.739-17.104-.985-1.224-2.107-1.631-4.78-1.837-1.404 0-1.546-.202-1.546-1.223v-3.743c0-1.02.283-1.429.844-1.429h30.773c.767 0 .985.614.985 1.631v2.842a1.802 1.802 0 00.008.364l.008.565c-.089 1.094-.823 1.033-.823 1.033l-.238.016c-.194.012-.388.025-.574.04l-.19.017-.02.004c-4.113.4-5.97 1.59-5.97 4.92 0 1.838 1.542 6.924 3.718 13.205 4.154 11.978 10.633 28.303 13.176 34.705l13.956-35.645 3.584-9.144c.4-1.691.626-3.043.626-3.936 0-3.265-1.546-4.29-6.604-4.493-1.829 0-2.112-.202-2.112-1.63v-3.88c0-.412.424-.614 1.127-.614h23.325c.56 0 .843.202.843.614v4.081c0 .816-.56 1.43-1.404 1.43-3.654.201-5.341 2.248-9.414 11.84m283.722-17.21v3.96c0 1.006-.617 1.76-1.542 1.76-4 .255-5.85 3.823-10.314 15.631l-6.003 15.574c-.165.457-.351.961-.549 1.51-2.781 7.634-8.772 23.987-14.23 39.687l-2.386 8.287c-.153 7.283-.238 14.323-.153 21.606.194 17.927.097 24.362 1.635 26.873 1.235 2.01 4.09 5.676 9.212 7.097 2.188.601 2.75.508 2.717 2.394l-.093 3.399c0 .755-.464 1.255-1.385 1.255l-37.006-10.419-.767-.25c-.775-.19-.964-.824-1.013-1.232-.004-.1-.008-.197-.008-.306v-3.242c0-1.255.682-1.748 2.358-1.405 11.04 2.26 11.537.553 11.057-12.66l-.065-32.605-2.882-9.043c-4.61-13.132-11-31.71-16.26-46.44-4.405-12.316-8.018-21.948-9.14-23.434-1.078-1.51-2.31-2.01-5.236-2.26-1.538 0-1.691-.25-1.691-1.51v-3.226c0-1.255.306-1.756.92-1.756h33.716c.617 0 1.078.755 1.078 2.01v2.205c0 2.01-.46 2.26-2.003 2.26-5.542.255-7.686 3.44-7.686 7.961 0 2.584 2.204 10.383 5.131 19.631 4.594 14.493 10.98 32.546 13.487 39.63l12.81-35.807 7.774-21.73c.226-1.276.351-2.325.351-3.096 0-4.021-1.695-6.334-7.238-6.588-2.002 0-2.309-.25-2.309-2.01v-3.71c0-.505.464-.756 1.235-.756h25.554c.613 0 .924.25.924.755M133.81 267.89c-17.1 0-28.868-26.592-28.868-65.745 0-10.233.719-19.482 2.08-27.596 4.04-24.088 13.76-38.144 27.26-38.144 10.492 0 17.585 10.786 22.336 28.641 2.777 10.444 4.315 23.305 4.315 37.842 0 39.395-9.866 65.001-27.123 65.001m37.627-104.938c-6.923-21.613-18.9-34.426-36.057-34.426-21.46 0-37.78 19.478-43.78 49.819-1.635 8.255-2.503 17.314-2.503 27.006 0 41.366 17.884 70.665 43.146 70.665 26.51 0 44.535-31.27 44.535-74.605 0-14.682-1.881-27.668-5.34-38.459m60.233 70.359c-6.269 8.941-19.118 11.246-27.919 12.223V138.681c12.381-.391 22.102.751 28.182 10.456 1.445 2.297 2.708 4.84 3.794 7.63 3.407 8.723 5.09 19.187 5.09 32.932 0 17.706-2.906 34.701-9.147 43.61m-15.287-104.054H178.23c-1.057 0-1.59.432-1.59 1.296v3.67c0 1.082.662 1.51.8 1.51h2.78c2.52 0 5.038 1.077 5.967 2.591 1.34 2.015 2.039 8.724 2.28 21.755a666.4 666.4 0 01.106 12.785v37.13c0 2.62-.004 11.058-.016 13.294-.093 17.839-.239 24.23-2.37 26.833-1.264 1.542-3.625 2.305-6.051 2.49l-2.806.449c-.662 0-1.058.432-1.058 1.296l.283 4.791c.133 1.082.234 1.454 1.163 1.454l26.154-4.824s14.844-2.116 23.023-4.199c2.41-.613 4.73-1.453 7.149-3.068 13.867-9.377 22.106-30.563 22.106-58.159 0-13.572-2.265-25.533-6.334-35.197-6.806-16.172-18.666-25.897-33.433-25.897" fill="#231f20"/><path d="M508.526 232.716v27.907c0 .888-.52 1.328-.908 1.328l-58.773-10.568-.634-.126c-.379-.19-.597-.69-.597-1.679l.234-2.915c0-1.11.65-1.582 1.3-1.55 9.006.42 9.616 5.612 10.16-26.603v-62.676c0-.157-.003-.299-.003-.452-.024-16.43-1.502-19.651-9.87-19.651-1.042 0-1.821 0-1.821-1.329v-3.818c0-1.107.392-1.329 1.3-1.329h56.496c1.037 0 1.3.222 1.3 1.995v23.03c0 1.776-.13 2.442-.521 2.442h-3.936c-.65 0-.908-.666-.908-2.22v-3.762c-.134-9.527-1.95-13.29-6.5-13.29h-20.592v49.484l15.433 1.021c7.929 0 9.358-2.438 9.487-15.061 0-3.104 0-3.544 1.166-3.544h2.62c.99 0 1.042.884 1.042 2.216v40.752c0 1.328-.392 1.772-.912 1.772h-3.008c-.52 0-.779-.444-.779-2.216 0-12.628-1.687-15.728-8.054-15.728l-16.995-1.037-.02 51.894 11.376 1.731.012.004 1.712.259c.109 0 .214.004.327.004l5.841.807 3.694.525s5.651 1.086 5.768-6.915c0 0 .17-5.74.202-9.596 0-1.55 0-2.878.909-2.878h3.673c.78 0 .78.888.78 1.772zm-128.735-18.678c0 19.461-13.282 32.965-32.049 32.965-8.663 0-14.29-1.39-23.821-5.959V214.24c0-.597.29-1.59.722-1.59h2.6c.723 0 1.3 2.98 1.732 7.347.577 7.747 1.586 11.719 3.609 13.503 4.622 4.17 10.972 6.948 16.026 6.948 10.686 0 18.477-8.732 18.477-20.649 0-9.926-5.341-16.68-20.063-25.618-8.954-5.36-22.813-13.697-22.813-33.159 0-3.003.355-5.89 1.022-8.626 3.467-14.267 15.453-24.339 30.595-24.339 6.205 0 13.91 2.067 18.82 4.453l.525 19.845v5.293c0 .79-.432 1.19-1.442 1.19h-1.88c-1.01 0-1.01-.4-1.297-3.374l-.29-2.584c-.024-.198-.045-.391-.073-.59-1.623-13.821-5.421-18.076-16.24-18.076-8.797 0-15.683 7.557-16.858 18.036a29.785 29.785 0 00-.178 3.214c0 9.729 5.196 16.478 19.636 25.416 16.89 10.524 23.24 19.461 23.24 33.159zm64.52 1.723c0 19.85-13.728 33.62-33.13 33.62-8.957 0-14.775-1.418-24.624-6.08v-27.342c0-.605.298-1.619.746-1.619h2.685c.747 0 1.344 3.04 1.792 7.497.598 7.896 1.643 11.945 3.73 13.774 4.776 4.25 11.344 7.084 16.563 7.084 11.045 0 19.107-8.913 19.107-21.06 0-10.129-5.522-17.015-20.745-26.13-9.253-5.47-23.58-13.976-23.58-33.821 0-3.31.432-6.48 1.231-9.459 3.791-14.206 16.039-24.169 31.452-24.169 6.418 0 14.924 1.825 19.998 4.255v25.925c0 .811-.448 1.22-1.493 1.22h-1.938c-1.046 0-1.046-.409-1.344-3.448l-.255-2.22-.044-.412c-1.643-14.581-5.523-19.038-16.862-19.038-9.03 0-16.107 7.593-17.399 18.162a28.475 28.475 0 00-.214 3.508c0 9.922 5.373 16.813 20.297 25.924 17.46 10.734 24.028 19.854 24.028 33.83zM314.94 147.22l-2.406 5.555-3.076 7.101c-2.249 5.51-8.15 19.8-13.488 33.478l-1.497 6.737c-.138 5.918-.138 11.638-.138 17.556 0 14.493.279 18.106 1.688 20.148 1.122 1.635 3.254 1.962 7.464 1.752 1.97-.096 2.458.291 2.458 1.72v3.674c0 .613-.42 1.021-1.263 1.021l-33.865 1.752c-1.264 0-1.546-.408-1.546-1.429v-3.88c-.008-1.533 1.776-1.138 3.322-1.34 8.118-.068 8.417-.698 8.417-10.496v-30.07l-2.184-7.347c-4.384-11.122-10.536-26.688-15.445-38.56-3.742-9.055-6.77-15.954-7.739-17.104-.985-1.224-2.107-1.631-4.78-1.837-1.404 0-1.546-.202-1.546-1.223v-3.743c0-1.02.283-1.429.844-1.429h30.773c.767 0 .985.614.985 1.631v2.842a1.802 1.802 0 00.008.364l.008.565c-.089 1.094-.823 1.033-.823 1.033l-.238.016c-.194.012-.388.025-.574.04l-.19.017-.02.004c-4.113.4-5.97 1.59-5.97 4.92 0 1.838 1.542 6.924 3.718 13.205 4.154 11.978 10.633 28.303 13.176 34.705l13.956-35.645 3.584-9.144c.4-1.691.626-3.043.626-3.936 0-3.265-1.546-4.29-6.604-4.493-1.829 0-2.112-.202-2.112-1.63v-3.88c0-.412.424-.614 1.127-.614h23.325c.56 0 .843.202.843.614v4.081c0 .816-.56 1.43-1.404 1.43-3.654.201-5.341 2.248-9.414 11.84zM598.66 130.01v3.96c0 1.006-.617 1.76-1.542 1.76-4 .255-5.85 3.823-10.314 15.631l-6.003 15.574c-.165.457-.351.961-.549 1.51-2.781 7.634-8.772 23.987-14.23 39.687l-2.386 8.287c-.153 7.283-.238 14.323-.153 21.606.194 17.927.097 24.362 1.635 26.873 1.235 2.01 4.09 5.676 9.212 7.097 2.188.601 2.75.508 2.717 2.394l-.093 3.399c0 .755-.464 1.255-1.385 1.255l-37.006-10.419-.767-.25c-.775-.19-.964-.824-1.013-1.232-.004-.1-.008-.197-.008-.306v-3.242c0-1.255.682-1.748 2.358-1.405 11.04 2.26 11.537.553 11.057-12.66l-.065-32.605-2.882-9.043c-4.61-13.132-11-31.71-16.26-46.44-4.405-12.316-8.018-21.948-9.14-23.434-1.078-1.51-2.31-2.01-5.236-2.26-1.538 0-1.691-.25-1.691-1.51v-3.226c0-1.255.306-1.756.92-1.756h33.716c.617 0 1.078.755 1.078 2.01v2.205c0 2.01-.46 2.26-2.003 2.26-5.542.255-7.686 3.44-7.686 7.961 0 2.584 2.204 10.383 5.131 19.631 4.594 14.493 10.98 32.546 13.487 39.63l12.81-35.807 7.774-21.73c.226-1.276.351-2.325.351-3.096 0-4.021-1.695-6.334-7.238-6.588-2.002 0-2.309-.25-2.309-2.01v-3.71c0-.505.464-.756 1.235-.756h25.554c.613 0 .924.25.924.755zM133.81 267.89c-17.1 0-28.868-26.592-28.868-65.745 0-10.233.719-19.482 2.08-27.596 4.04-24.088 13.76-38.144 27.26-38.144 10.492 0 17.585 10.786 22.336 28.641 2.777 10.444 4.315 23.305 4.315 37.842 0 39.395-9.866 65.001-27.123 65.001zm37.627-104.939c-6.923-21.613-18.9-34.426-36.057-34.426-21.46 0-37.78 19.478-43.78 49.819-1.635 8.255-2.503 17.314-2.503 27.006 0 41.366 17.884 70.665 43.146 70.665 26.51 0 44.535-31.27 44.535-74.605 0-14.682-1.881-27.668-5.34-38.459zm60.234 70.359c-6.269 8.941-19.118 11.246-27.919 12.223V138.681c12.381-.391 22.102.751 28.182 10.456 1.445 2.297 2.708 4.84 3.794 7.63 3.407 8.723 5.09 19.187 5.09 32.932 0 17.706-2.906 34.701-9.147 43.61zm-15.287-104.055H178.23c-1.057 0-1.59.432-1.59 1.296v3.67c0 1.082.662 1.51.8 1.51h2.78c2.52 0 5.038 1.077 5.967 2.591 1.34 2.015 2.039 8.724 2.28 21.755a666.4 666.4 0 01.106 12.785v37.13c0 2.62-.004 11.058-.016 13.294-.093 17.839-.239 24.23-2.37 26.833-1.264 1.542-3.625 2.305-6.051 2.49l-2.806.449c-.662 0-1.058.432-1.058 1.296l.283 4.791c.133 1.082.234 1.454 1.163 1.454l26.154-4.824s14.844-2.116 23.023-4.199c2.41-.613 4.73-1.453 7.149-3.068 13.867-9.377 22.106-30.563 22.106-58.159 0-13.572-2.265-25.533-6.334-35.197-6.806-16.172-18.666-25.897-33.433-25.897z" fill="none" stroke="#231f20" stroke-width="2.65221702" stroke-miterlimit="2"/><path d="M190.678 256.877l-12.716 1.437-1.558-1.74-1.284.985s-.5 5.938 4.182 4.687l44.317-7.295s3.839-.827 5.93-1.732c3.39-1.47 8.07-4.246 11.743-9.256l.92-2.382-51.534 15.296zM582.549 253.755h2.216c2.144 0 2.612-.706 2.612-1.829 0-.835-.34-1.695-2.531-1.695h-2.297v3.524zm2.636-4.99c2.273 0 3.996.731 3.996 3.21 0 2.143-1.36 2.955-2.95 3.16l3.237 5.014h-1.934l-3.003-4.937h-1.982v4.937h-1.724v-11.384h4.36zm-8.59 5.668c0 4.7 3.471 8.247 8.04 8.247 4.728 0 7.99-3.73 7.99-8.275 0-4.566-3.472-8.17-7.99-8.17-4.54 0-8.04 3.576-8.04 8.198m18.016-.028c0 5.458-4.283 9.923-9.947 9.923-5.458 0-10.056-4.179-10.056-9.895 0-5.643 4.598-9.846 10.028-9.846 5.405 0 9.975 4.203 9.975 9.818" fill="#231f20"/><path d="M418.28 95.244v8.641c0 .275-.161.411-.281.411l-18.199-3.272-.196-.039c-.118-.059-.185-.214-.185-.52l.072-.902c0-.344.202-.49.403-.48 2.789.13 2.977 1.737 3.146-8.238V71.438l-.001-.14c-.008-5.088-.465-6.085-3.056-6.085-.323 0-.564 0-.564-.412V63.62c0-.343.121-.411.403-.411h17.493c.322 0 .403.068.403.617v7.131c0 .55-.04.757-.161.757h-1.22c-.2 0-.28-.207-.28-.688V69.86c-.042-2.95-.604-4.115-2.013-4.115h-6.376v15.323l4.779.316c2.455 0 2.897-.755 2.937-4.664 0-.961 0-1.097.361-1.097h.812c.306 0 .322.273.322.686v12.619c0 .41-.121.548-.282.548h-.932c-.161 0-.241-.137-.241-.686 0-3.91-.522-4.87-2.494-4.87l-5.262-.321-.006 16.069 3.522.536h.004l.53.08.102.002 1.808.25 1.144.162s1.75.337 1.786-2.14c0 0 .053-1.778.063-2.972 0-.48 0-.891.281-.891h1.138c.24 0 .24.275.24.548zm-39.862-5.784c0 6.026-4.113 10.208-9.924 10.208-2.683 0-4.425-.43-7.376-1.845v-8.3c0-.185.09-.493.223-.493h.805c.224 0 .403.923.537 2.275.178 2.399.49 3.629 1.117 4.181 1.431 1.292 3.398 2.152 4.963 2.152 3.308 0 5.72-2.704 5.72-6.394 0-3.074-1.653-5.165-6.212-7.933-2.772-1.66-7.063-4.24-7.063-10.267 0-.93.11-1.824.316-2.671 1.074-4.418 4.785-7.537 9.474-7.537 1.92 0 4.307.64 5.827 1.38l.163 6.144V72c0 .245-.134.369-.447.369h-.582c-.313 0-.313-.124-.401-1.045l-.09-.8c-.007-.062-.014-.122-.023-.183-.502-4.28-1.679-5.597-5.029-5.597-2.723 0-4.856 2.34-5.22 5.585a9.223 9.223 0 00-.055.995c0 3.012 1.609 5.102 6.08 7.87 5.23 3.258 7.197 6.026 7.197 10.267zm19.978.534c0 6.146-4.251 10.41-10.258 10.41-2.774 0-4.575-.439-7.625-1.883v-8.466c0-.187.092-.501.23-.501h.832c.231 0 .416.941.555 2.321.185 2.445.509 3.699 1.155 4.265 1.479 1.316 3.513 2.194 5.129 2.194 3.42 0 5.916-2.76 5.916-6.521 0-3.137-1.71-5.27-6.424-8.092-2.865-1.693-7.301-4.327-7.301-10.472 0-1.025.134-2.006.381-2.929 1.174-4.399 4.967-7.484 9.739-7.484 1.988 0 4.621.565 6.193 1.318V72.18c0 .252-.14.378-.463.378h-.6c-.324 0-.324-.126-.416-1.068l-.079-.687-.014-.128c-.509-4.515-1.71-5.895-5.221-5.895-2.796 0-4.988 2.352-5.388 5.624a8.827 8.827 0 00-.066 1.086c0 3.073 1.664 5.207 6.285 8.028 5.406 3.324 7.44 6.147 7.44 10.475zm-40.06-21.224l-.745 1.72-.952 2.199c-.696 1.706-2.524 6.131-4.176 10.366l-.464 2.086c-.043 1.833-.043 3.604-.043 5.437 0 4.487.087 5.606.523 6.238.347.507 1.007.608 2.311.543.61-.03.761.09.761.532v1.138c0 .19-.13.316-.391.316l-10.486.543c-.391 0-.479-.127-.479-.443v-1.201c-.002-.475.55-.353 1.029-.415 2.514-.021 2.606-.216 2.606-3.25v-9.311l-.676-2.275c-1.358-3.444-3.263-8.264-4.783-11.94-1.158-2.804-2.096-4.94-2.396-5.297-.305-.378-.652-.505-1.48-.568-.435 0-.479-.063-.479-.38V63.65c0-.316.088-.442.262-.442h9.528c.238 0 .305.19.305.505v.88a.697.697 0 00.002.112l.002.175c-.027.339-.255.32-.255.32l-.073.005c-.06.004-.12.007-.178.013l-.059.005h-.006c-1.273.124-1.848.493-1.848 1.524 0 .57.477 2.144 1.15 4.09 1.287 3.708 3.293 8.763 4.08 10.745l4.322-11.037 1.11-2.831c.124-.524.194-.943.194-1.219 0-1.011-.479-1.329-2.045-1.391-.566 0-.654-.063-.654-.505v-1.202c0-.127.131-.19.349-.19h7.222c.174 0 .262.063.262.19v1.264c0 .253-.174.443-.435.443-1.132.062-1.654.696-2.915 3.666zm87.854-5.329v1.227c0 .31-.191.545-.477.545-1.24.078-1.812 1.183-3.194 4.84l-1.859 4.822-.17.468c-.861 2.363-2.716 7.427-4.406 12.288l-.739 2.567a202.18 202.18 0 00-.047 6.69c.06 5.55.03 7.543.506 8.32.382.623 1.266 1.758 2.852 2.198.678.187.852.158.842.742l-.03 1.052c0 .234-.143.389-.428.389l-11.459-3.226-.237-.078c-.24-.059-.299-.255-.314-.381l-.002-.095v-1.004c0-.389.211-.541.73-.435 3.419.7 3.572.171 3.424-3.92l-.02-10.096-.893-2.8c-1.427-4.066-3.406-9.819-5.035-14.38-1.364-3.814-2.482-6.796-2.83-7.256-.334-.468-.715-.623-1.621-.7-.476 0-.524-.078-.524-.468v-.999c0-.388.095-.543.285-.543h10.44c.191 0 .334.233.334.622v.683c0 .622-.143.7-.62.7-1.716.078-2.38 1.065-2.38 2.465 0 .8.682 3.215 1.589 6.078 1.422 4.488 3.4 10.078 4.176 12.272l3.966-11.088 2.408-6.729c.07-.395.108-.72.108-.958 0-1.245-.525-1.962-2.24-2.04-.62 0-.716-.078-.716-.623v-1.149c0-.156.144-.233.383-.233h7.912c.19 0 .286.077.286.233zm-143.94 42.694c-5.295 0-8.939-8.234-8.939-20.357 0-3.17.223-6.033.644-8.545 1.251-7.46 4.261-11.812 8.441-11.812 3.249 0 5.445 3.34 6.917 8.87.86 3.233 1.336 7.215 1.336 11.717 0 12.198-3.055 20.127-8.399 20.127zm11.651-32.494c-2.143-6.692-5.852-10.66-11.165-10.66-6.645 0-11.698 6.032-13.556 15.427-.506 2.556-.775 5.36-.775 8.362 0 12.809 5.538 21.881 13.36 21.881 8.209 0 13.79-9.682 13.79-23.1 0-4.547-.582-8.568-1.654-11.91zm18.652 21.787c-1.942 2.768-5.92 3.482-8.645 3.785V66.126c3.833-.12 6.843.233 8.726 3.238.447.711.839 1.499 1.175 2.362 1.055 2.702 1.576 5.942 1.576 10.198 0 5.482-.9 10.745-2.832 13.504zm-4.734-32.22h-11.814c-.327 0-.492.133-.492.4v1.137c0 .335.205.468.247.468h.861c.78 0 1.56.333 1.848.802.415.624.631 2.701.706 6.736.023 1.157.033 2.472.033 3.96v11.497c0 .81-.001 3.423-.005 4.116-.03 5.524-.074 7.502-.734 8.309-.391.477-1.123.713-1.874.77l-.869.14c-.205 0-.327.133-.327.4l.087 1.485c.041.335.073.45.36.45l8.099-1.494s4.596-.655 7.129-1.3c.746-.19 1.465-.45 2.214-.95 4.293-2.904 6.845-9.464 6.845-18.009 0-4.202-.702-7.906-1.962-10.899-2.107-5.007-5.78-8.018-10.352-8.018z" fill="url(#E)" transform="matrix(3.22949 0 0 3.22949 -839.935 -79.07)"/><g fill="#860506"><g clip-path="url(#F)" transform="matrix(4.03686 0 0 -4.03686 -839.206 2973.207)"><g clip-path="url(#G)"><g clip-path="url(#H)"><path d="M333.383 677.388s.043 1.421.05 2.376c0 .218.001.366.042.498h-.148c-.226 0-.226-.279-.226-.663-.007-.956-.049-2.377-.049-2.377-.013-.85-.327-1.446-.626-1.666.401.121.94.668.957 1.832M344.717 683.942l.05-8.332c.065-1.8.056-2.738-.42-3.124.803.22.83 1.14.751 3.29l-.049 8.332-.714 2.24c-1.142 3.252-2.725 7.855-4.029 11.503-1.09 3.052-1.986 5.437-2.263 5.806-.267.373-.573.498-1.297.56-.382 0-.419.062-.419.373v.442c0 .115.01.203.031.27h-.134c-.153 0-.229.042-.229-.27v-.608c0-.31.038-.374.42-.374.724-.06 1.024-.228 1.291-.6.278-.369 1.136-2.68 2.227-5.73.82-2.296 2.452-6.928 4.07-11.538l.714-2.24zM310.214 676.05c-2.218 0-3.226.212-5.666 1.367v6.639c0 .069.003.132.03.209h-.19c-.11 0-.171-.093-.171-.374v-6.64c2.44-1.154 3.447-1.367 5.666-1.367 1.525 0 2.914.4 4.093 1.028a8.8 8.8 0 00-3.762-.862m6.425 22.138c.193 0 .303.055.347.166l-.015-.001h-.15c-.259 0-.259.1-.333.853l-.062.385-.012.102c-.406 3.612-1.387 4.912-4.196 4.912-.68 0-1.314-.01-1.878-.325.477.21.997.158 1.546.158 2.81 0 3.79-1.298 4.197-4.911l.011-.102.063-.384c.053-.821.073-.853.332-.853h.15zm-12.348-.718c0 .819.107 1.603.304 2.343.625 2.346 2.062 4.015 4.162 5.007-1.932-1.027-3.239-2.621-3.83-4.841a9.04 9.04 0 01-.306-2.343c0-4.917 3.55-7.024 5.841-8.38 3.771-2.257 5.14-3.962 5.14-6.472 0-2.257-1.022-4.152-2.738-4.914 1.5.924 2.406 2.64 2.406 4.749 0 2.509-1.367 4.214-5.14 6.473-2.29 1.354-5.84 3.46-5.84 8.378M294.676 676.756c-2.145 0-3.283.088-5.644 1.22v6.52c0 .067.015.153.04.228h-.193c-.107 0-.18-.246-.18-.394v-6.52c2.362-1.132 3.5-1.22 5.645-1.22 1.462 0 2.79.33 3.923.935-1.058-.498-2.27-.77-3.591-.77m-5.904 20.878c0-4.82 3.433-6.886 5.65-8.214 3.648-2.215 5.05-3.952 4.97-6.346-.07-2.197-.661-3.144-1.91-4.354 1.72 1.38 2.088 2.235 2.243 4.52.166 2.454-1.323 4.132-4.971 6.346-2.217 1.327-5.65 3.393-5.65 8.214 0 .744.088 1.459.252 2.137.55 2.267 1.818 3.88 3.753 4.907-2.105-.987-3.502-2.678-4.084-5.072a9.033 9.033 0 01-.253-2.138m11.802.76c-.302 0-.281 0-.322.836l-.072.639-.017.147c-.378 2.916-1.161 4.422-3.798 4.486-.336.009-.88.068-1.74-.176.88.312 1.219.295 1.873.295 2.679 0 3.594-1.015 3.996-4.44l.018-.146.072-.64c.07-.737.07-.835.32-.835h.25c-.042-.11-.075-.166-.263-.166h-.317zM319.825 675.546l-.149.029c-.089.045-.184-.042-.184.19l.055.687c0 .084-.007.07.02.124l-.053.002c-.153.008-.282-.023-.282-.284l-.055-.686c0-.233.095-.146.184-.19l.149-.03 10.888-1.958c.07 0 2.163-.404 3.233-.465l-13.806 2.581zm12.632 19.886h-.075c-.29 0-.29-.109-.29-.877-.021-2.016-.197-2.936-.809-3.416.914.323 1.117 1.252 1.141 3.581 0 .37 0 .586.033.712m-13.116 8.96v.67c0 .274.097.329.323.329h.027a.617.617 0 01-.018-.163v-.67c0-.329.193-.329.451-.329 2.073 0 2.439-.797 2.445-4.868v-15.637c-.092-5.455-.11-6.456-1.002-7.026.468.464.594 2.317.671 6.86v15.638c-.007 4.071-.47 4.865-2.446 4.868-.258 0-.451 0-.451.328M264.094 677.988c.932.441 1.486 1.05 2.085 1.904 1.546 2.206 2.266 6.417 2.266 10.802 0 3.405-.417 5.998-1.26 8.16-.27.69-.643 1.516-1 2.085-1.508 2.404-3.525 2.664-6.592 2.566l-1.129-.079c3.526.12 5.937-.336 7.388-2.653.358-.569.731-1.396 1-2.086.845-2.16 1.261-4.753 1.261-8.159 0-4.385-.719-8.596-2.266-10.802-.526-.752-.954-1.313-1.753-1.738m-11.878 26.45v.554c-.004.274-.004.32.364.32a.342.342 0 01-.033-.154v-.555c0-.267.165-.374.198-.374h.69c.623 0 1.247-.267 1.477-.642.332-.498.505-2.327.565-5.554.018-.925.026-1.976.026-3.167v-9.199c0-.649 0-2.739-.004-3.292-.023-4.42-.034-6.1-.562-6.746a1.542 1.542 0 00-.646-.436c.121.077.23.166.315.271.528.645.538 2.326.561 6.745.003.554.004 2.643.004 3.292v9.198c0 1.192-.008 2.243-.025 3.168-.06 3.227-.262 4.983-.593 5.481-.23.375-.827.715-1.45.715h-.69c-.033 0-.23-.048-.197.375M263.997 675.36a94.48 94.48 0 00-4.683-.823l-2.598-.449-3.942-.715c-.23 0-.254.092-.287.36l-.031.78c0 .068.01.124.03.171l-.1-.016c-.163 0-.31 0-.261-.322l.03-.779c.034-.268.058-.36.288-.36l5.218.891 3.776.623s.58.085 2.228.472c.47.11.922.274 1.385.526a5.083 5.083 0 00-1.053-.36M241.475 669.543c-6.257 0-10.613 7.028-10.613 17.275 0 2.401.215 4.644.62 6.69 1.095 5.534 3.623 9.48 6.977 11.243-3.412-1.368-6.178-5.694-7.31-11.409-.403-2.046-.62-4.29-.62-6.69 0-10.247 4.357-17.274 10.614-17.274 1.344 0 2.552.446 3.699 1.053-1.056-.5-2.153-.888-3.367-.888m6.85 17.72c0 3.6-.381 6.785-1.07 9.373-1.175 4.423-3.126 7.357-5.725 7.357-.658 0-1.302-.113-1.884-.374.675.37 1.428.56 2.212.56 2.6 0 4.553-2.955 5.73-7.378.688-2.587 1.069-5.772 1.069-9.373 0-8.425-1.927-14.522-5.175-15.973 3.04 1.693 4.844 7.673 4.844 15.807M278.07 687.854v-6.284c-.018-2.695-.107-3.381-.485-3.688.696.208.817 1.003.817 2.689v7.448l-.541 1.822c-1.087 2.754-2.61 6.61-3.826 9.55-.928 2.243-1.704 4.117-1.945 4.4-.243.305-.494.422-1.156.473-.348 0-.382.05-.382.303l.007.57c0 .077.004.126.017.176l-.14.013c-.266 0-.216-.115-.216-.368v-.557c0-.253.034-.303.383-.303.66-.051.912-.168 1.156-.471.24-.285 1.017-2.16 1.944-4.4 1.217-2.942 2.74-6.798 3.826-9.553l.54-1.82zm-2.212-11.282c-.313 0-.364.185-.364.438v.415c0 .055.01.099.027.136-.358 0-.358 0-.358-.302v-.415c0-.437.05-.437.363-.437l7.59.347c.165 0 .264.063.299.164l-7.557-.346zm6.997 27.984v.609c0 .102.104.153.278.153h.088v-.597c0-.353.07-.404.523-.404 1.253-.051 1.636-.47 1.636-1.278 0-.222-.056-.556-.156-.976l-.886-2.265-4.107-10.493c-.02.047.026.682.026.682l3.749 9.645.887 2.265c.099.42.155.755.155.976 0 .809-.383 1.228-1.636 1.278-.452 0-.557.05-.557.405"/></g></g><g clip-path="url(#I)"><g clip-path="url(#J)"><path d="M332.58 684.894h-.115c-.13 0-.193.11-.193.55 0 3.126-.418 3.894-1.995 3.894l-5.051.377.49-.254 4.23-.288c1.576 0 1.995-.769 1.995-3.896 0-.439.064-.549.193-.549h.447v.166z"/></g></g><g clip-path="url(#K)"><g clip-path="url(#L)"><path d="M333.247 699.088h-.04c-.16 0-.225.12-.225.505v.92c-.032 2.358-.483 3.29-1.609 3.29h-5.654v-.164h5.322c1.062-.023 1.577-.933 1.61-3.293v-.92c0-.527.064-.504.225-.504h.371v.166z"/></g></g><g><g clip-path="url(#M)"><g clip-path="url(#N)"><path d="M350.5 668.907l-8.324 2.335-.19.06c-.19.048-.239.206-.25.307a.886.886 0 00-.003.075v.549c0 .082-.016.055.01.11-.34.04-.34-.027-.34-.276v-.548l.001-.076c.012-.101.06-.258.251-.305l.196-.064 8.648-2.338v.17z"/></g></g></g><g><g clip-path="url(#O)"><g clip-path="url(#P)"><path d="M350.797 704.063c-.496 0-.572.062-.572.498v.92c0 .008.002.014.003.022h-.03c-.19 0-.305-.063-.305-.187v-.92c0-.436.077-.497.572-.497 1.373-.063 1.793-.636 1.793-1.633a4.7 4.7 0 00-.087-.766l-1.926-5.384-2.44-6.825-.006.002-.287-.818-.244-.681.002-.006-.538-1.53v-.854l1.037 3.028 2.808 7.85 1.926 5.384c.055.315.086.576.086.767 0 .995-.419 1.569-1.792 1.63"/></g></g></g></g></g><path d="M440.69 101.418c-4.481-3.77-4.226-4.967.885-4.15 5.68.908 8.25-1.68 9.264-9.325.419-3.152.602-5.89.407-6.084-.194-.195-3.525 2.345-7.401 5.644-7.158 6.09-17.514 12.486-23.725 14.651-4.54 1.583-9.991-.64-9.991-4.075 0-2.322-.095-2.308-5.715.79-6.443 3.553-8.674 3.892-10.569 1.61-1.76-2.12-.828-4.595 4.336-11.515 3.196-4.285 3.98-6.049 2.974-6.695-.902-.579-2.472.51-4.617 3.198-1.787 2.24-5.461 6.197-8.163 8.79-9.309 8.935-14.76 10.974-17.787 6.652l-1.567-2.238-3.665 2.234c-6.77 4.128-11.626 2.05-10.332-4.421l.679-3.393-4.625 3.77c-7.827 6.382-8.783 6.634-12.085 3.187-1.584-1.654-2.88-3.591-2.88-4.306 0-.714-2.327.34-5.17 2.343-6.77 4.768-8.276 5.217-11.033 3.286-3.082-2.16-2.906-4.076.954-10.349 1.79-2.91 2.689-5.29 1.996-5.29-.692 0-5.044 3.888-9.67 8.64-7.386 7.588-8.642 8.472-10.304 7.257-1.794-1.312-1.79-1.549.082-4.559 1.087-1.746 3.233-4.61 4.77-6.366 2.269-2.59 1.413-2.222-4.545 1.955-4.037 2.83-9.38 6.06-11.87 7.175-4.246 1.9-4.765 1.916-8.248.256-3.458-1.65-3.667-2.04-3.01-5.616 1.223-6.65 4.543-12.807 9.672-17.936 5.874-5.874 9.73-6.484 13.776-2.177 2.437 2.594 2.503 2.977.996 5.715-.959 1.74-4.605 4.485-8.96 6.744-6.53 3.388-9.71 6.69-8.046 8.354.93.931 10.64-4.786 19.862-11.695 4.736-3.548 9.024-6.452 9.53-6.453.504-.001 1.171.969 1.481 2.155.532 2.032.839 1.96 5.298-1.242 4.574-3.285 4.826-3.338 7.497-1.588 1.52.997 2.765 2.274 2.765 2.838 0 .565-1.984 4.097-4.41 7.848-2.5 3.87-3.892 6.994-3.216 7.22 2.68.892 9.441-5.36 17.457-16.145l8.496-11.429-4.054-.324c-2.23-.178-10.394.418-18.143 1.326l-14.09 1.65-1.88-2.414c-1.035-1.328-1.892-2.729-1.906-3.113-.043-1.241 4.598-1.88 18.48-2.541 13.889-.663 26.5-1.6 26.725-1.987 2.167-3.731 10.746-14.91 11.442-14.91.533 0 1.775 1.23 2.76 2.736 1.712 2.612 1.664 2.931-1.063 7.051-1.57 2.374-2.856 4.74-2.856 5.259 0 .518 7.225 1.252 16.055 1.631 8.83.38 19.24 1.313 23.13 2.074 6.68 1.308 5.657 1.402-18.256 1.678l-25.332.292-7.02 9.492c-7.809 10.561-13.23 19.857-11.58 19.857 1.55 0 15.529-12.34 18.438-16.275 2.631-3.558 4.688-4.16 6.55-1.917.865 1.042.219 2.592-2.53 6.066-3.653 4.616-6.753 11.72-5.612 12.862 1.158 1.158 7.284-4.23 13.889-12.215 3.691-4.463 6.923-8.114 7.18-8.114 1.332 0 4.681 2.398 4.681 3.352 0 .604-2.45 4.333-5.442 8.288-5.36 7.08-6.629 10.13-4.215 10.13 2.28 0 14.922-14.038 14.457-16.054-.242-1.048.282-2.842 1.165-3.986 1.446-1.873 2.328-1.98 8.871-1.088 9.95 1.357 10.769 2.918 5.526 10.53-2.219 3.222-4.035 6.184-4.035 6.581 0 1.557 9.665-4.077 10.674-6.221 1.822-3.873 9.098-11.654 11.891-12.716 1.96-.745 3.48-.52 5.828.868 6.736 3.979 4.581 9.657-5.31 13.994-5.765 2.527-8.933 5.085-8.933 7.211 0 3.985 13.722-3.799 25.334-14.37 5.253-4.783 9.943-8.696 10.423-8.696.48 0 1.996 1.196 3.369 2.658l2.497 2.658-1.751 9.44c-2.262 12.196-4.992 16.81-9.944 16.81-2.325 0-4.845-1.017-6.986-2.818zm-10.241-19.58c1.283-3.344-1.029-3.844-4.112-.89-1.73 1.658-3.146 3.387-3.146 3.842 0 1.337 6.65-1.369 7.258-2.952zm-133.794.64c3.618-2.206 4.663-4.366 2.113-4.366-1.602 0-3.963 1.788-6.11 4.626-1.894 2.506-.377 2.407 3.997-.26zm-97.266 19.103c-2.147-1.504-2.18-1.909-.844-10.069.766-4.676 1.419-9.98 1.45-11.786l.058-3.284-10.047.71-10.048.711-10.52 11.281c-10.498 11.26-10.524 11.277-12.81 9.208-1.26-1.14-2.29-2.57-2.29-3.178 0-.607 3.246-4.468 7.215-8.579 3.97-4.111 7.02-7.672 6.779-7.912-.241-.241-8.264.264-17.829 1.123-9.565.86-20.942 1.88-25.283 2.27l-7.891.71v-2.817c0-1.549.44-3.088.976-3.42.945-.584 28.526-3.076 48.55-4.387l9.796-.642 4.354-4.625c2.395-2.543 9.27-9.866 15.277-16.273l10.924-11.648 4.141 1.143c3.485.963 4.052 1.52 3.578 3.515-1.244 5.238-4.165 25.958-3.72 26.402.431.432 9.689 1.128 19.326 1.453 7.108.24 1.167 2.007-9.414 2.8-11.482.86-11.61.96-12.823 9.812-2.726 19.916-3.437 21.311-8.905 17.482zm1.9-32.014c1.12-1.143 2.273-13.224 1.262-13.224-.508 0-4.34 3.475-8.514 7.721l-7.59 7.722 7.075-.757c3.892-.416 7.387-1.074 7.768-1.462zm34.874 30.704c-2.852-2.247-3.482-3.4-2.973-5.43.356-1.418.452-2.578.215-2.578-.239 0-3.28 1.714-6.76 3.81-3.48 2.095-7.372 3.809-8.65 3.809-3.084 0-7.057-4.362-7.057-7.748 0-5.59 10.67-12.841 23.712-16.116l7.31-1.835 8.708-14.334c4.789-7.884 9.197-14.33 9.796-14.326 1.32.01 5.987 3.792 5.987 4.852 0 .417-4.1 7.196-9.111 15.064-10.594 16.635-14.007 23.049-13.54 25.445.217 1.112 3.79-2.212 10.068-9.369 9.667-11.02 9.745-11.078 11.866-8.957 2.061 2.062 2.073 2.356.337 8.542-3.506 12.496-2.05 11.72 8.687-4.626 4.112-6.26 7.965-11.231 8.564-11.048.599.184 1.527 2.07 2.062 4.191.921 3.65.605 4.346-5.908 12.98-15.279 20.252-15.872 20.725-20.75 16.558-1.44-1.23-1.573-2.532-.778-7.597.527-3.363.75-6.322.496-6.576-.254-.255-3.822 3.705-7.929 8.8-4.107 5.094-8.201 9.28-9.1 9.302-.897.021-3.261-1.244-5.252-2.813zm-7.012-10.96c5.075-2.947 10.982-9.267 9.212-9.857-1.53-.51-13.242 5.536-16.268 8.4-1.347 1.274-2.45 3.065-2.45 3.98 0 2.064 2.954 1.28 9.506-2.524zm252.223 10.26l-2.892-2.488 6.7-11.09c3.684-6.099 7.184-11.39 7.777-11.756.593-.366 2.27.115 3.728 1.07l2.65 1.736-4.875 7.268c-7.833 11.68-7.318 11.61 7.858-1.063 7.698-6.428 9.223-7.29 11.116-6.276 2.234 1.195 2.123 3.305-.343 6.489-1.727 2.23 2.007.13 7.394-4.157 4.877-3.883 5.133-3.929 9.428-1.708 4.026 2.082 4.121 4.812.41 11.783-1.54 2.895-2.529 5.535-2.195 5.869.333.333 4.165-.014 8.515-.77 8.193-1.424 48.653-2.977 47.573-1.826-.336.358-8.933 1.603-19.104 2.766s-24.522 3.184-31.89 4.491c-12.288 2.18-13.543 2.233-15.142.634-1.599-1.6-1.397-2.385 2.434-9.478 3.886-7.196 3.997-7.64 1.59-6.385-4.311 2.248-13.847 10.773-15.858 14.177-2.233 3.781-3.633 3.994-6.37.97-1.712-1.892-1.83-2.731-.776-5.522l1.242-3.291-4.018 3.001c-2.21 1.651-5.402 4.136-7.094 5.523-3.805 3.118-4.269 3.12-7.858.033zm17.094-29.755c-2.531-1.105-3.441-2.098-2.993-3.265.354-.923.644-1.883.644-2.134 0-1.32 5.547-.174 7.735 1.597 2.173 1.76 2.326 2.303 1.076 3.81-1.707 2.057-1.732 2.057-6.462-.007z" fill="#ed1a23"/><g fill="#e69076"><path d="M509.16 227.15h-2.728c-.396 0-.614.26-.739.667l1.433.065c.78 0 .803.82.803 1.7l-.068 26.614c0 .166-.023.315-.057.448l1.332.178c.388 0 .731-.412.731-1.292l.073-26.615c0-.88 0-1.764-.78-1.764m-33.493-94.79h-2.007v51.677l15.433 1.013c2.483 0 5.68-.097 7.045-.808-1.038.206-3.605.141-5.038.141l-15.433-1.013v-51.009zm29.146-5.708c1.041 0 1.3.223 1.3 1.986v21.246c0 .808-.03 1.373-.093 1.878h1.582c.388-.117.521-.78.521-2.54v-21.25c0-1.764-.262-1.982-1.304-1.982h-55.454c-.686 0-1.078.125-1.223.662h54.671zM473.64 244.55l11.372 1.724h.013l1.712.258c.113 0 .218.003.327.003l5.845.803.823.117s4.837.735 6.367-.218c-.679.065-1.49-.044-1.49-.044l-3.694-.52-5.845-.804h-.327l-1.712-.262h-.013l-11.371-1.728.019-54.037-1.978-.913-.049 55.62zm31.77-37.272V168.08c0-1.32-.048-2.205-1.037-2.205h-1.768c-.606 0-.897.125-1.038.667h.8c.984 0 1.037.884 1.037 2.204v39.202c0 .472-.053.827-.141 1.094h1.24c.52 0 .907-.44.907-1.764M357.292 177.328c-13.616-8.38-20.059-16.232-19.635-27.257.044-1.09.065-2.16.182-3.197.908-8.041 5.881-14.347 11.84-16.814-6.984 1.773-12.842 8.563-13.847 17.48a27.56 27.56 0 00-.182 3.197c0 9.68 5.196 18.368 19.636 27.257 16.89 10.468 23.91 19.36 23.91 32.99 0 14.916-7.686 25.06-19.89 29.509 13.342-3.888 21.444-14.484 21.444-30.204 0-13.628-6.568-22.493-23.458-32.961m-2.059-51.882c6.205 0 13.907 2.06 18.82 4.429l.525 19.74v3.69c0 .198-.03.367-.085.516h.65c1.01 0 1.445-.395 1.445-1.182v-3.686l-.529-19.744c-4.909-2.37-12.61-4.425-18.816-4.425-3.968 0-7.714 1.066-11.15 2.338 2.87-.844 5.935-1.676 9.14-1.676m-5.211 111.942c-5.055 0-13.379-3.697-16.023-6.91-1.711-2.08-3.031-5.733-3.613-13.435-.432-4.344-1.009-7.981-1.732-7.981l-1.57.003c-.238 0-.428.299-.557.666h1.15c.72 0 .271 3.633.703 7.977.577 7.702 1.586 11.654 3.609 13.435 4.622 4.15 10.972 6.91 16.026 6.91 2.41 0 4.675-.447 6.738-1.27-1.498.395-3.08.605-4.731.605M420.846 177.917c-13.891-8.55-20.463-16.556-20.031-27.802.044-1.114.065-2.204.186-3.266.924-8.203 5.998-14.634 12.078-17.149-7.125 1.809-13.1 8.728-14.125 17.831a28.738 28.738 0 00-.186 3.262c0 9.874 5.3 18.739 20.031 27.802 17.23 10.681 24.39 19.752 24.39 33.651 0 15.219-7.843 25.57-20.288 30.103 13.608-3.964 21.871-14.771 21.871-30.81 0-13.902-6.697-22.94-23.926-33.622m-2.091-52.653c6.33 0 14.177 1.829 19.183 4.247l.54 20.14v4.19c0 .202-.028.375-.084.529l.662.282c1.03 0 1.47-.408 1.47-1.21v-4.474l-.537-20.136c-5.006-2.422-12.854-4.246-19.184-4.246-4.049 0-7.867 1.086-11.375 2.381 2.93-.86 6.055-1.703 9.325-1.703M410.33 239.07c-7.182-1.017-11.562-4.263-14.94-7.892-1.837-1.97-2.225-4.566-2.802-12.26-.432-4.348-1.01-7.98-1.732-7.98h-.9c-.239 0-.428.298-.553.665l.213.662c.719 0 .533 2.971.965 7.315.578 7.702 1.59 11.654 3.61 13.43 4.617 4.146 8.521 5.454 13.555 6.226 2.386.363 5.66.823 9.688 0-1.493.391-5.465.068-7.104-.166M280.339 126.638c.763 0 .985.613.985 1.626v1.018c-.013.085-.013.19.003.327v.036l.007.565c-.017.194-.057.34-.105.473l.27-.036.02-.004.185-.013c.19-.016.38-.032.578-.044l.238-.016s.735.06.82-1.026l-.004-.56c0-.014-.003-.023-.003-.037a1.632 1.632 0 01-.003-.331v-1.017c0-1.018-.218-1.627-.985-1.627h-29.558c-.392 0-.888 0-.759.666h28.31zm34.002 15.061l-2.402 5.523-3.076 7.068c-2.248 5.478-8.15 22.51-13.49 36.118l-1.494 6.697c-.142 5.89-.142 11.578-.142 17.467 0 14.416.182 18.707 1.587 20.734 1.122 1.623 3.258 1.954 7.468 1.744 1.966-.097 2.459.29 2.459 1.711v1.773c0 .145-.03.274-.073.391l.811-.04c.844 0 1.268-.404 1.268-1.014v-1.776c0-1.42-.493-1.808-2.459-1.711-4.21.21-6.341-.117-7.468-1.74-1.405-2.03-1.582-6.322-1.582-20.738 0-5.89 0-11.577.14-17.463l1.495-6.701c5.336-13.613 11.238-30.636 13.487-36.118l3.076-7.065 2.406-5.526c2.926-6.859 4.307-8.812 6.386-10.024-3.181.445-4.594 1.785-8.397 10.69m-37.518-9.85c-2.822.577-4.118 1.857-4.118 4.622 0 1.83 1.926 9.2 4.102 15.45 4.154 11.916 12.243 30.89 15.243 38.669l.121-4.788c-3.391-8.784-9.62-23.826-13.354-34.548-2.18-6.249-4.105-13.62-4.105-15.449 0-1.994.678-3.213 2.11-3.956m47.499-5.211c.56 0 .843.201.843.613v2.24c0 .324-.092.614-.254.848.274-.044.557-.072.856-.088.843 0 1.404-.614 1.404-1.425v-2.245c0-.408-.282-.61-.843-.61H304.64c-.703 0-1.215-.108-1.127.61v.057h20.806zM128.448 132.74c-11.089 2.971-19.4 16.14-22.97 37.555-1.368 8.207-2.09 17.564-2.09 27.915 0 39.601 11.985 66.879 29.17 66.879 2.212 0 4.392.205 6.358-.61-1.364.363-3.415.363-4.88.222-17.658-1.667-28.63-27.564-28.63-67.17 0-10.35.723-19.703 2.087-27.914 3.35-20.092 10.92-32.868 20.955-36.877m44.402 26.752c-6.923-21.496-18.9-34.244-36.061-34.244-4.078 0-7.965.952-11.639 2.288 3.072-.904 6.29-1.622 9.632-1.622 17.157 0 29.138 12.748 36.062 34.244 3.455 10.734 5.34 23.656 5.34 38.262 0 36.743-13.737 63.85-34.026 71.323 21.423-6.318 36.033-34.047 36.033-71.99 0-14.605-1.882-27.523-5.341-38.26M217.795 125.971h-36.844c-.759 0-1.32-.06-1.32.667h36.158c14.767 0 26.627 9.676 33.433 25.763 4.07 9.612 6.334 21.516 6.334 35.016 0 27.454-8.461 47.227-22.324 56.556a20.495 20.495 0 01-4.13 2.107c2.051-.59 4.058-1.397 6.137-2.773 13.862-9.33 22.324-29.102 22.324-56.557 0-13.499-2.261-25.4-6.334-35.015-6.806-16.087-18.663-25.764-33.434-25.764m-13.612 7.61c-.662.013-1.328.029-2.006.048v109.678c4.436-.489 9.56-1.13 14.694-2.967-4.727 1.283-8.825 1.756-12.688 2.184V133.58zM560.506 200.084v6.253l-2.14-5.648c-.092-.238-.181-.48-.278-.726v-.004c-.053-.137-.1-.27-.153-.407l-.023-.069c-3.524-9.377-8.812-24.895-12.958-37.926-2.931-9.196-5.535-19.39-5.535-21.957 0-3.94 1.643-6.862 5.769-7.694-2.652 1.276-3.758 3.807-3.758 7.024 0 2.572 2.6 12.765 5.53 21.965 3.738 11.731 8.324 25.388 12.018 35.262l1.53 3.928zm38.645-74.113h-24.588c-.723 0-1.167.226-1.22.666h23.798c.617 0 .924.25.924.751v2.236c0 .473-.14.889-.387 1.195.274-.052.56-.093.855-.113.925 0 1.539-.75 1.539-1.748v-2.236c0-.5-.307-.75-.92-.75m-13.81 21.31l-6.472 17.512c-.165.452-.351.956-.553 1.501-2.777 7.594-8.098 23.192-13.556 38.81l-2.386 8.248c-.157 7.246-.238 14.242-.157 21.488.198 17.835.097 24.237 1.64 26.736 1.23 2.003 4.088 5.648 9.211 7.06 2.188.602 2.745.51 2.717 2.382l-.093 2.188c0 .142-.022.27-.056.392l.678.19c1.09.327 1.179.254 1.385-1.248l.092-2.188c.033-1.873-.524-1.78-2.717-2.382-5.122-1.412-7.976-5.062-9.208-7.056-1.542-2.503-1.445-8.901-1.643-26.74-.076-7.246 0-14.246.158-21.492l2.385-8.244c5.458-15.618 10.779-31.217 13.56-38.806.202-.549.384-1.054.55-1.51l6.474-17.508c3.484-9.155 5.37-13.333 7.933-14.847-3.75.452-5.62 4.142-9.943 15.513m-35.597-20.644c.614 0 1.078.75 1.078 2.002v.384c0 .759-.069 1.267-.234 1.602.08-.006.157-.016.238-.019 1.542 0 2.002-.25 2.002-2.253v-.379c0-1.251-.46-2.002-1.073-2.002h-33.373c-.392 0-.654.202-.8.666h32.162z"/></g></g></svg>